<svg xmlns="http://www.w3.org/2000/svg" viewBox="0 0 92 40"><style>.st0{fill:#3e515b}</style><path class="st0" d="M59.144 25.868a.246.246 0 00-.318.152c-.009.024-.295.816-.789 1.879l-.063.131c-.964 2.01-3.078 5.292-5.772 4.538-.754-.211-1.344-.812-1.757-1.477-2.004-3.232-2.513-7.466-2.605-11.184a20.182 20.182 0 01.625-5.543c.481-1.86 1.436-3.445 2.102-5.215.25-.665.51-1.405.492-2.127-.022-.863-.741-1.454-1.618-1.057-.416.188-.728.55-.981.93-.823 1.233-1.133 2.691-1.499 4.103A42.83 42.83 0 0046 15.746c-.449 3.175-.485 6.425.126 9.582a23.27 23.27 0 00.858 3.2c.877 2.527 2.593 5.634 5.657 5.634 3.789 0 6.539-7.648 6.654-7.975a.248.248 0 00-.151-.319z"/><path class="st0" d="M70.487 25.868a.246.246 0 00-.318.152c-.009.024-.295.816-.789 1.879l-.063.131c-.964 2.01-3.078 5.292-5.772 4.538-.754-.211-1.344-.812-1.757-1.477-2.004-3.232-2.513-7.466-2.605-11.184a20.182 20.182 0 01.625-5.543c.481-1.86 1.436-3.445 2.102-5.215.25-.665.51-1.405.492-2.127-.022-.863-.741-1.454-1.618-1.057-.416.188-.728.55-.981.93-.823 1.233-1.133 2.691-1.499 4.103a42.83 42.83 0 00-.961 4.748c-.449 3.175-.485 6.425.126 9.582a23.27 23.27 0 00.858 3.2c.877 2.527 2.593 5.634 5.657 5.634 3.789 0 6.539-7.648 6.654-7.975a.247.247 0 00-.151-.319z"/><path class="st0" d="M54.905 14.544a1.014 1.014 0 01-.991-1.038 1.015 1.015 0 011.034-.996c8.524.179 17.7 2.071 17.802 2.09.55.104 1.503.782.807 1.188-.697.407-10.3-1.069-18.652-1.244z"/><path class="st0" d="M37.197 15.876c-.486-.01-1.753.133-.98-.87s10.206-2.675 18.73-2.496c.56.012 1.003.476.991 1.038a1.015 1.015 0 01-1.034.996c-8.353-.175-17.438 1.307-17.539 1.322a1.053 1.053 0 01-.168.01zM28.279 29.54c-.181-.187-.424-.132-.564.065-.432.606-.746 1.222-1.296 1.755-.661.64-1.471 1.126-2.374 1.327-.759.169-1.549.13-2.301-.058-.586-.146-1.911-.635-2.309-2.862-.353-1.972.383-5.407 2.386-6.521.92-.513 1.804-.617 2.427-.29.39.204.637.553.677.957.091.904-.375 1.257-.423 1.291a1.13 1.13 0 00-.358 1.531c.319.528 1.01.7 1.544.381.637-.385 1.665-1.539 1.477-3.427-.115-1.155-.816-2.174-1.874-2.727-1.311-.683-2.974-.567-4.565.318-1.737.967-2.758 2.848-3.253 4.713-.408 1.539-.636 3.295-.07 4.824.61 1.648 2.25 2.877 3.936 3.253 1.297.289 2.862-.145 3.984-.811 1.065-.633 1.898-1.577 2.579-2.6.129-.193.252-.39.372-.589.104-.177.149-.381.005-.53zM11.515 12.207a2.45 2.45 0 00-.511-.779 2.393 2.393 0 00-.76-.524 2.401 2.401 0 00-1.864 0 2.366 2.366 0 00-.76.524 2.465 2.465 0 00-.696 1.733c0 .677.234 1.26.696 1.734.462.472 1.031.712 1.692.712s1.23-.24 1.692-.713a2.402 2.402 0 00.696-1.733c0-.338-.062-.658-.185-.954zm-1.498 1.677a.955.955 0 01-.706.297.955.955 0 01-.706-.297 1.005 1.005 0 01-.29-.723 1.034 1.034 0 01.29-.723.992.992 0 01.317-.218.998.998 0 01.777 0 .992.992 0 01.53.543c.051.123.077.257.077.398a.993.993 0 01-.289.723z"/><path class="st0" d="M18.628 23.64a.252.252 0 00-.305.18c-.131.51-.267.985-.407 1.444-.832 2.731-2.787 6.991-5.918 7.408-1.516.202-3.084-.61-3.733-2.008-1.292-2.786.961-6.851 1.804-8.493a1.126 1.126 0 00-2-1.031c-.145.28-3.591 5.216-1.847 9.689.719 1.843 2.491 3.186 4.477 3.32 2.587.174 4.128-1.511 5.405-3.497 1.308-2.034 2.106-4.379 2.703-6.707a.25.25 0 00-.179-.305zM47.478 23.085a.383.383 0 00-.697.129c-.215 1-1.313 2.704-2.356 3.322-.486.287-1.447.766-2.526.814-.057-.694-.407-4.013-1.777-5.485-.427-.458-.913-.69-1.447-.69-.257 0-.529.144-.768.405-.46.504-.689 1.303-.613 2.138.104 1.136.736 2.491 1.502 3.224.229.218.48.406.788.588-.032 1.496-.607 2.942-1.663 4.01-1 1.012-2.388 1.658-3.725.816-.732-.461-1.226-1.238-1.476-2.066-.616-2.04-.175-5.628 2.27-6.392.606-.189.949-.838.764-1.444a1.158 1.158 0 00-1.448-.774c-.143.044-3.505 1.136-4.112 5.637-.317 2.354.573 3.944 1.377 4.863 1.068 1.223 2.646 1.982 4.117 1.982 2.233 0 5.864-1.646 6.188-6.052 1.341-.048 2.498-.65 2.941-.913 1.225-.723 2.466-2.648 2.716-3.821a.4.4 0 00-.055-.291zm-9.323-.196c1.094.008 1.427 3.717 1.427 3.717-.866-.283-2.263-3.723-1.427-3.717zM84.99 20.828c-.947.72.421 2.802-.487 4-.451.699-1.036 1.368-1.61 1.708-.486.287-1.447.766-2.526.814-.057-.694-.407-4.013-1.777-5.485-.427-.458-.913-.69-1.447-.69-.257 0-.529.144-.768.405-.46.504-.689 1.303-.613 2.138.104 1.136.736 2.491 1.502 3.224.229.218.48.406.788.588-.032 1.496-.607 2.942-1.663 4.01-1 1.012-2.388 1.658-3.725.816-.732-.461-1.226-1.238-1.476-2.066-.616-2.04-.175-5.628 2.27-6.392.606-.189.949-.838.764-1.444a1.158 1.158 0 00-1.448-.774c-.143.044-3.505 1.136-4.112 5.637-.317 2.354.573 3.944 1.377 4.863 1.068 1.223 2.646 1.982 4.117 1.982 2.233 0 5.864-1.646 6.188-6.052 1.341-.048 2.498-.65 2.941-.913.811-.479 1.622-1.482 2.155-2.448h.006l.054-.113c.23-.434.404-.855.487-1.211.128-.387.239-.809.275-1.2.103-1.126-.752-1.793-1.272-1.397zm-8.366 2.061c1.094.008 1.427 3.717 1.427 3.717-.866-.283-2.263-3.723-1.427-3.717z"/></svg>
